<svg width="57" height="48" viewBox="0 0 57 48" fill="none" xmlns="http://www.w3.org/2000/svg">
<ellipse cx="28.8333" cy="24" rx="28" ry="24" fill="#0081FE"/>
<path d="M17.7972 24.327C16.9264 24.7186 16.9625 25.2922 17.8755 25.6018L20.5807 26.5192C21.4945 26.8302 22.8771 26.6605 23.6517 26.1425L35.3989 18.2018C36.1711 17.6812 36.2539 17.758 35.5833 18.3734L26.2966 26.8934C25.6237 27.507 25.8224 28.2605 26.7392 28.5644L27.0561 28.6702C27.9728 28.9741 29.4669 29.4844 30.3777 29.8018L33.3779 30.8489C34.2894 31.1663 35.2634 30.7922 35.5223 29.9792L40.0949 15.5728C40.3531 14.7599 39.8518 14.4147 38.9809 14.8057L17.7972 24.327Z" fill="white"/>
<path d="M25.2211 33.7586C25.1677 33.8961 27.0712 31.3961 27.0712 31.3961C27.6094 30.6915 27.3038 29.8509 26.3946 29.5322L24.3187 28.8038C23.4094 28.4851 22.9736 28.8593 23.3499 29.638C23.3499 29.638 25.2761 33.6173 25.2211 33.7586Z" fill="white"/>
</svg>
