<svg width="160" height="24" viewBox="0 0 160 24" fill="none" xmlns="http://www.w3.org/2000/svg">
<path d="M26.6777 19.16C25.611 19.16 24.591 19 23.6177 18.68C22.6443 18.3467 21.8777 17.92 21.3177 17.4L22.0577 15.84C22.591 16.3067 23.271 16.6933 24.0977 17C24.9243 17.3067 25.7843 17.46 26.6777 17.46C27.491 17.46 28.151 17.3667 28.6577 17.18C29.1643 16.9933 29.5377 16.74 29.7777 16.42C30.0177 16.0867 30.1377 15.7133 30.1377 15.3C30.1377 14.82 29.9777 14.4333 29.6577 14.14C29.351 13.8467 28.9443 13.6133 28.4377 13.44C27.9443 13.2533 27.3977 13.0933 26.7977 12.96C26.1977 12.8267 25.591 12.6733 24.9777 12.5C24.3777 12.3133 23.8243 12.08 23.3177 11.8C22.8243 11.52 22.4243 11.1467 22.1177 10.68C21.811 10.2 21.6577 9.58667 21.6577 8.84C21.6577 8.12 21.8443 7.46 22.2177 6.86C22.6043 6.24667 23.191 5.76 23.9777 5.4C24.7777 5.02667 25.791 4.84 27.0177 4.84C27.831 4.84 28.6377 4.94667 29.4377 5.16C30.2377 5.37333 30.931 5.68 31.5177 6.08L30.8577 7.68C30.2577 7.28 29.6243 6.99333 28.9577 6.82C28.291 6.63333 27.6443 6.54 27.0177 6.54C26.231 6.54 25.5843 6.64 25.0777 6.84C24.571 7.04 24.1977 7.30667 23.9577 7.64C23.731 7.97333 23.6177 8.34667 23.6177 8.76C23.6177 9.25333 23.771 9.64667 24.0777 9.94C24.3977 10.2333 24.8043 10.4667 25.2977 10.64C25.8043 10.8133 26.3577 10.9733 26.9577 11.12C27.5577 11.2533 28.1577 11.4067 28.7577 11.58C29.371 11.7533 29.9243 11.98 30.4177 12.26C30.9243 12.54 31.331 12.9133 31.6377 13.38C31.9443 13.8467 32.0977 14.4467 32.0977 15.18C32.0977 15.8867 31.9043 16.5467 31.5177 17.16C31.131 17.76 30.531 18.2467 29.7177 18.62C28.9177 18.98 27.9043 19.16 26.6777 19.16ZM47.6995 8.3C48.5529 8.3 49.3062 8.46667 49.9595 8.8C50.6129 9.13333 51.1195 9.64 51.4795 10.32C51.8529 11 52.0395 11.86 52.0395 12.9V19H50.1195V13.12C50.1195 12.0933 49.8795 11.32 49.3995 10.8C48.9195 10.28 48.2462 10.02 47.3795 10.02C46.7395 10.02 46.1795 10.1533 45.6995 10.42C45.2195 10.6867 44.8462 11.08 44.5795 11.6C44.3262 12.12 44.1995 12.7667 44.1995 13.54V19H42.2795V13.12C42.2795 12.0933 42.0395 11.32 41.5595 10.8C41.0929 10.28 40.4195 10.02 39.5395 10.02C38.9129 10.02 38.3595 10.1533 37.8795 10.42C37.3995 10.6867 37.0262 11.08 36.7595 11.6C36.4929 12.12 36.3595 12.7667 36.3595 13.54V19H34.4395V8.4H36.2795V11.22L35.9795 10.5C36.3129 9.80667 36.8262 9.26667 37.5195 8.88C38.2129 8.49333 39.0195 8.3 39.9395 8.3C40.9529 8.3 41.8262 8.55333 42.5595 9.06C43.2929 9.55333 43.7729 10.3067 43.9995 11.32L43.2195 11C43.5395 10.1867 44.0995 9.53333 44.8995 9.04C45.6995 8.54667 46.6329 8.3 47.6995 8.3ZM61.8523 19V16.76L61.7523 16.34V12.52C61.7523 11.7067 61.5123 11.08 61.0323 10.64C60.5657 10.1867 59.859 9.96 58.9123 9.96C58.2857 9.96 57.6723 10.0667 57.0723 10.28C56.4723 10.48 55.9657 10.7533 55.5523 11.1L54.7523 9.66C55.299 9.22 55.9523 8.88667 56.7123 8.66C57.4857 8.42 58.2923 8.3 59.1323 8.3C60.5857 8.3 61.7057 8.65333 62.4923 9.36C63.279 10.0667 63.6723 11.1467 63.6723 12.6V19H61.8523ZM58.3723 19.12C57.5857 19.12 56.8923 18.9867 56.2923 18.72C55.7057 18.4533 55.2523 18.0867 54.9323 17.62C54.6123 17.14 54.4523 16.6 54.4523 16C54.4523 15.4267 54.5857 14.9067 54.8523 14.44C55.1323 13.9733 55.579 13.6 56.1923 13.32C56.819 13.04 57.659 12.9 58.7123 12.9H62.0723V14.28H58.7923C57.8323 14.28 57.1857 14.44 56.8523 14.76C56.519 15.08 56.3523 15.4667 56.3523 15.92C56.3523 16.44 56.559 16.86 56.9723 17.18C57.3857 17.4867 57.959 17.64 58.6923 17.64C59.4123 17.64 60.039 17.48 60.5723 17.16C61.119 16.84 61.5123 16.3733 61.7523 15.76L62.1323 17.08C61.879 17.7067 61.4323 18.2067 60.7923 18.58C60.1523 18.94 59.3457 19.12 58.3723 19.12ZM66.9255 19V8.4H68.7655V11.28L68.5855 10.56C68.8788 9.82667 69.3721 9.26667 70.0655 8.88C70.7588 8.49333 71.6121 8.3 72.6255 8.3V10.16C72.5455 10.1467 72.4655 10.14 72.3855 10.14C72.3188 10.14 72.2521 10.14 72.1855 10.14C71.1588 10.14 70.3455 10.4467 69.7455 11.06C69.1455 11.6733 68.8455 12.56 68.8455 13.72V19H66.9255ZM78.7616 19.12C77.6949 19.12 76.8682 18.8333 76.2816 18.26C75.6949 17.6867 75.4016 16.8667 75.4016 15.8V6.08H77.3216V15.72C77.3216 16.2933 77.4616 16.7333 77.7416 17.04C78.0349 17.3467 78.4482 17.5 78.9816 17.5C79.5816 17.5 80.0816 17.3333 80.4816 17L81.0816 18.38C80.7882 18.6333 80.4349 18.82 80.0216 18.94C79.6216 19.06 79.2016 19.12 78.7616 19.12ZM73.6016 9.98V8.4H80.3616V9.98H73.6016Z" fill="#112D4E"/>
<path d="M89.6428 19.16C88.5761 19.16 87.5895 18.9867 86.6828 18.64C85.7895 18.28 85.0095 17.78 84.3428 17.14C83.6895 16.4867 83.1761 15.7267 82.8028 14.86C82.4295 13.9933 82.2428 13.04 82.2428 12C82.2428 10.96 82.4295 10.0067 82.8028 9.14C83.1761 8.27333 83.6961 7.52 84.3628 6.88C85.0295 6.22667 85.8095 5.72667 86.7028 5.38C87.6095 5.02 88.5961 4.84 89.6628 4.84C90.7428 4.84 91.7361 5.02667 92.6428 5.4C93.5628 5.76 94.3428 6.3 94.9828 7.02L93.6828 8.28C93.1495 7.72 92.5495 7.30667 91.8828 7.04C91.2161 6.76 90.5028 6.62 89.7428 6.62C88.9561 6.62 88.2228 6.75333 87.5428 7.02C86.8761 7.28667 86.2961 7.66 85.8028 8.14C85.3095 8.62 84.9228 9.19333 84.6428 9.86C84.3761 10.5133 84.2428 11.2267 84.2428 12C84.2428 12.7733 84.3761 13.4933 84.6428 14.16C84.9228 14.8133 85.3095 15.38 85.8028 15.86C86.2961 16.34 86.8761 16.7133 87.5428 16.98C88.2228 17.2467 88.9561 17.38 89.7428 17.38C90.5028 17.38 91.2161 17.2467 91.8828 16.98C92.5495 16.7 93.1495 16.2733 93.6828 15.7L94.9828 16.96C94.3428 17.68 93.5628 18.2267 92.6428 18.6C91.7361 18.9733 90.7361 19.16 89.6428 19.16ZM101.347 19.12C100.28 19.12 99.3334 18.8867 98.5067 18.42C97.6801 17.9533 97.0267 17.3133 96.5467 16.5C96.0667 15.6733 95.8267 14.74 95.8267 13.7C95.8267 12.6467 96.0667 11.7133 96.5467 10.9C97.0267 10.0867 97.6801 9.45333 98.5067 9C99.3334 8.53333 100.28 8.3 101.347 8.3C102.4 8.3 103.34 8.53333 104.167 9C105.007 9.45333 105.66 10.0867 106.127 10.9C106.607 11.7 106.847 12.6333 106.847 13.7C106.847 14.7533 106.607 15.6867 106.127 16.5C105.66 17.3133 105.007 17.9533 104.167 18.42C103.34 18.8867 102.4 19.12 101.347 19.12ZM101.347 17.44C102.027 17.44 102.633 17.2867 103.167 16.98C103.713 16.6733 104.14 16.24 104.447 15.68C104.753 15.1067 104.907 14.4467 104.907 13.7C104.907 12.94 104.753 12.2867 104.447 11.74C104.14 11.18 103.713 10.7467 103.167 10.44C102.633 10.1333 102.027 9.98 101.347 9.98C100.667 9.98 100.06 10.1333 99.5267 10.44C98.9934 10.7467 98.5667 11.18 98.2467 11.74C97.9267 12.2867 97.7667 12.94 97.7667 13.7C97.7667 14.4467 97.9267 15.1067 98.2467 15.68C98.5667 16.24 98.9934 16.6733 99.5267 16.98C100.06 17.2867 100.667 17.44 101.347 17.44ZM114.862 8.3C115.729 8.3 116.489 8.46667 117.142 8.8C117.809 9.13333 118.329 9.64 118.702 10.32C119.075 11 119.262 11.86 119.262 12.9V19H117.342V13.12C117.342 12.0933 117.089 11.32 116.582 10.8C116.089 10.28 115.389 10.02 114.482 10.02C113.802 10.02 113.209 10.1533 112.702 10.42C112.195 10.6867 111.802 11.08 111.522 11.6C111.255 12.12 111.122 12.7667 111.122 13.54V19H109.202V8.4H111.042V11.26L110.742 10.5C111.089 9.80667 111.622 9.26667 112.342 8.88C113.062 8.49333 113.902 8.3 114.862 8.3ZM125.1 19L120.46 8.4H122.46L126.58 18H125.62L129.82 8.4H131.7L127.06 19H125.1ZM137.619 19.12C136.486 19.12 135.486 18.8867 134.619 18.42C133.766 17.9533 133.099 17.3133 132.619 16.5C132.152 15.6867 131.919 14.7533 131.919 13.7C131.919 12.6467 132.146 11.7133 132.599 10.9C133.066 10.0867 133.699 9.45333 134.499 9C135.312 8.53333 136.226 8.3 137.239 8.3C138.266 8.3 139.172 8.52667 139.959 8.98C140.746 9.43333 141.359 10.0733 141.799 10.9C142.252 11.7133 142.479 12.6667 142.479 13.76C142.479 13.84 142.472 13.9333 142.459 14.04C142.459 14.1467 142.452 14.2467 142.439 14.34H133.419V12.96H141.439L140.659 13.44C140.672 12.76 140.532 12.1533 140.239 11.62C139.946 11.0867 139.539 10.6733 139.019 10.38C138.512 10.0733 137.919 9.92 137.239 9.92C136.572 9.92 135.979 10.0733 135.459 10.38C134.939 10.6733 134.532 11.0933 134.239 11.64C133.946 12.1733 133.799 12.7867 133.799 13.48V13.8C133.799 14.5067 133.959 15.14 134.279 15.7C134.612 16.2467 135.072 16.6733 135.659 16.98C136.246 17.2867 136.919 17.44 137.679 17.44C138.306 17.44 138.872 17.3333 139.379 17.12C139.899 16.9067 140.352 16.5867 140.739 16.16L141.799 17.4C141.319 17.96 140.719 18.3867 139.999 18.68C139.292 18.9733 138.499 19.12 137.619 19.12ZM144.845 19V8.4H146.685V11.28L146.505 10.56C146.798 9.82667 147.292 9.26667 147.985 8.88C148.678 8.49333 149.532 8.3 150.545 8.3V10.16C150.465 10.1467 150.385 10.14 150.305 10.14C150.238 10.14 150.172 10.14 150.105 10.14C149.078 10.14 148.265 10.4467 147.665 11.06C147.065 11.6733 146.765 12.56 146.765 13.72V19H144.845ZM156.681 19.12C155.614 19.12 154.788 18.8333 154.201 18.26C153.614 17.6867 153.321 16.8667 153.321 15.8V6.08H155.241V15.72C155.241 16.2933 155.381 16.7333 155.661 17.04C155.954 17.3467 156.368 17.5 156.901 17.5C157.501 17.5 158.001 17.3333 158.401 17L159.001 18.38C158.708 18.6333 158.354 18.82 157.941 18.94C157.541 19.06 157.121 19.12 156.681 19.12ZM151.521 9.98V8.4H158.281V9.98H151.521Z" fill="#3F72AF"/>
<g clip-path="url(#clip0_32_14)">
<path fill-rule="evenodd" clip-rule="evenodd" d="M3.75 13.5V18.5L5 19.75H16.25L17.5 18.5V7.25L17.1375 6.3625L13.3875 2.6125L12.5 2.25H10V3.5H12.5L16.25 7.25V18.5H5V13.5H3.75ZM13.75 8.5H11.25V6H10V8.5H7.5V9.75H10V12.25H11.25V9.75H13.75V8.5ZM7.5 14.75H13.75V16H7.5V14.75Z" fill="#112D4E"/>
<path fill-rule="evenodd" clip-rule="evenodd" d="M8.825 5.8175L6.14375 8.5L5.26 7.61625L6.875 6H3.125C2.62772 6 2.15081 6.19754 1.79917 6.54917C1.44754 6.90081 1.25 7.37772 1.25 7.875C1.25 8.37228 1.44754 8.84919 1.79917 9.20083C2.15081 9.55246 2.62772 9.75 3.125 9.75H3.75V11H3.125C2.2962 11 1.50134 10.6708 0.915291 10.0847C0.32924 9.49866 0 8.7038 0 7.875C0 7.0462 0.32924 6.25134 0.915291 5.66529C1.50134 5.07924 2.2962 4.75 3.125 4.75H6.875L5.25875 3.13375L6.1425 2.25L8.82625 4.9325L8.825 5.8175Z" fill="#112D4E"/>
</g>
<defs>
<clipPath id="clip0_32_14">
<rect width="20" height="20" fill="white" transform="translate(0 1)"/>
</clipPath>
</defs>
</svg>
